<?xml version="1.0" encoding="UTF-8"?><svg id="_レイヤー_1" xmlns="http://www.w3.org/2000/svg" viewBox="0 0 400 400"><path d="M200,390c-104.77,0-190-85.23-190-190S95.23,10,200,10s190,85.23,190,190-85.23,190-190,190Z" style="fill:#fff;"/><path d="M200,20c48.08,0,93.28,18.72,127.28,52.72,34,34,52.72,79.2,52.72,127.28s-18.72,93.28-52.72,127.28-79.2,52.72-127.28,52.72-93.28-18.72-127.28-52.72c-34-34-52.72-79.2-52.72-127.28s18.72-93.28,52.72-127.28c34-34,79.2-52.72,127.28-52.72M200,0C89.54,0,0,89.54,0,200s89.54,200,200,200,200-89.54,200-200S310.46,0,200,0h0Z" style="fill:#005a52;"/><path d="M119.24,208.82c-5.38,13.23-12.04,25.91-20.86,37.21l-10.22-14.41c7.2-8.82,13.87-19.68,18.82-32.26l12.26,9.46ZM96.66,171.18c5.81,2.8,12.37,6.34,18.82,11.4l-9.25,13.44c-4.19-3.87-8.82-7.53-17.74-12.15l8.17-12.69ZM99.88,143.98c6.88,2.58,14.62,7.31,19.25,10.65l-9.79,13.23c-7.1-5.7-12.8-8.82-17.96-11.4l8.49-12.47ZM133.43,174.09c-2.9,6.24-4.52,8.6-6.56,11.51l-14.09-8.71c9.35-11.08,12.47-24.3,13.66-30.21l14.62,2.04c-.43,2.79-.86,5.59-2.15,10.32h8.06v-14.41h16.24v14.41h25.16v15.05h-25.16v13.33h28.5v15.16h-20.75v24.84c0,2.15.86,2.58,2.26,2.58h2.47c2.37,0,2.9,0,3.01-16.13l13.87,3.76c-.32,23.12-3.01,27.74-13.87,27.74h-13.12c-3.01,0-9.89-.21-9.89-10.32v-32.47h-6.99c-2.9,24.52-10.32,34.19-29.35,44.09l-9.46-14.09c12.69-5.05,22.37-12.58,23.87-30h-16.99v-15.16h30.22v-13.33h-13.55Z" style="fill:#595757;"/><path d="M236.78,207.96c-1.4,3.66-8.82,23.33-20.11,38.5l-10.75-14.3c8.39-10.32,15.27-24.52,18.5-32.47l12.37,8.28ZM214.84,171.62c5.91,2.47,10.97,5.27,18.71,11.51l-9.14,13.33c-3.66-3.23-10.43-8.49-18.28-12.04l8.71-12.8ZM217.63,144.3c3.66,1.51,12.04,4.95,19.68,11.08l-9.68,13.23c-3.98-3.33-8.71-6.88-18.39-11.72l8.39-12.58ZM241.4,179.68c-.32.32-.54.43-1.18.86l-11.51-11.29c9.36-6.02,17.85-14.95,23.23-25.59l16.24,2.26c-1.29,2.8-1.4,3.12-1.83,3.76h29.68v13.66c-.97,1.51-1.94,3.12-5.05,6.67h13.66v19.25h5.48v14.09h-5.48v25.16h-15.81v-4.52h-10.64v12.04c0,3.98-1.18,10.43-9.36,10.43h-21.83l-2.69-14.3h15.16c1.94,0,3.01-.65,3.01-3.01v-5.16h-23.87v-13.76h23.87v-6.88h-28.82v-13.55h28.82v-6.45h-21.08v-3.66ZM272.69,170c2.69-2.58,3.76-3.87,5.48-6.45h-20.65c-1.18,1.61-2.47,3.23-5.38,6.45h20.54ZM278.17,183.34v6.45h10.64v-6.45h-10.64ZM278.17,203.34v6.88h10.64v-6.88h-10.64Z" style="fill:#595757;"/></svg>