<?xml version="1.0" encoding="UTF-8"?><svg id="_レイヤー_1" xmlns="http://www.w3.org/2000/svg" viewBox="0 0 400 400"><path d="M200,390c-104.77,0-190-85.23-190-190S95.23,10,200,10s190,85.23,190,190-85.23,190-190,190Z" style="fill:#fff;"/><path d="M200,20c48.08,0,93.28,18.72,127.28,52.72,34,34,52.72,79.2,52.72,127.28s-18.72,93.28-52.72,127.28-79.2,52.72-127.28,52.72-93.28-18.72-127.28-52.72c-34-34-52.72-79.2-52.72-127.28s18.72-93.28,52.72-127.28c34-34,79.2-52.72,127.28-52.72M200,0C89.54,0,0,89.54,0,200s89.54,200,200,200,200-89.54,200-200S310.46,0,200,0h0Z" style="fill:#005a52;"/><path d="M91.82,150.65h31.08v80h-18.07v8.5h-13.01v-88.5ZM104.83,165.27v50.65h6.56v-50.65h-6.56ZM125.91,160.65v-11.4h23.87v-4.73h14.73v4.73h24.41v11.4h-6.77v5.05h9.35v10.86h-9.35v4.41h5.16v48.6h-12.47c1.29.54,8.92,4.19,18.28,5.59l-7.31,11.94c-3.44-.97-14.52-4.3-23.55-10.97l6.02-6.56h-23.55l6.99,6.34c-3.23,2.37-9.57,6.99-25.16,11.29l-6.99-12.58c6.34-.86,12.69-2.58,18.71-5.05h-10.97v-48.6h5.05v-4.41h-7.74v-10.86h7.74v-5.05h-6.45ZM142.04,190.33v4.62h30.43v-4.62h-30.43ZM142.04,202.58v4.73h30.43v-4.73h-30.43ZM142.04,214.84v4.73h30.43v-4.73h-30.43ZM145.58,160.65v5.05h4.73v-5.05h-4.73ZM145.58,176.56v4.41h23.01v-4.41h-23.01ZM163.97,160.65v5.05h4.62v-5.05h-4.62Z" style="fill:#595757;"/><path d="M220,206.46c-3.12-2.15-4.62-3.01-6.56-3.98l7.96-5.7h-10.54v-8.6h42.47v8.6c-2.37,2.26-4.73,4.52-12.69,9.68h14.41v9.25c-1.94,8.39-2.26,9.57-4.84,14.3l-9.25-4.19c1.5-2.37,3.12-7.42,3.66-9.46h-4.84v22.58c0,4.95-2.79,7.74-7.96,7.74h-13.12l-2.15-11.18c-1.94,1.94-3.23,3.01-5.81,4.95l-4.3-11.83c4.84-3.33,9.03-7.31,12.47-12.26h-10.75v-9.89h11.83ZM215.59,147.21h87.1v10h-36.24v3.44h40.97v22.58h-15.05v-13.76h-25.91v17.2h-14.62v-17.2h-26.13v13.76h-14.84v-22.58h40.97v-3.44h-36.24v-10ZM224.73,235.27c2.58,0,2.58-1.08,2.58-2.58v-11.29c-.86,1.61-3.98,7.31-10.54,13.87h7.96ZM223.12,196.78c4.41,2.69,6.02,3.87,7.74,5.05,4.52-2.8,5.05-3.12,7.53-5.05h-15.27ZM229.03,172.04h19.46v4.95h-19.46v-4.95ZM229.03,179.79h19.46v5.27h-19.46v-5.27ZM287.21,217.53c-.43,1.61-.54,2.04-.75,2.69h20.75c-.32,12.37-1.4,17.53-1.94,19.35-1.94,5.91-7.42,7.1-9.46,7.1h-14.73l-2.15-10.43h9.79c2.8,0,2.9-1.61,3.23-6.56h-9.57c-4.52,7.96-11.83,13.98-29.36,18.07l-5.91-11.08c3.98-.75,15.27-2.8,20.43-6.99h-12.47v-9.46h18.06c.32-.86.54-1.29,1.18-3.76l12.9,1.08ZM253.44,196.13c10.43-4.3,14.41-7.85,17.21-11.08h-.86v-5.27h19.57v5.27h-10.54l4.41,1.08c-.86,1.5-1.18,1.83-2.04,3.12h28.71v9.03h-5.38c-1.83,2.47-3.87,5.38-8.17,8.71,6.34,1.18,10.75,1.51,14.52,1.72l-4.41,10.54c-5.48-.86-13.33-2.26-23.44-5.7-8.17,2.37-16.45,3.76-23.33,4.95l-3.76-10c5.27-.32,9.14-.65,13.87-1.51-2.8-2.04-4.3-3.44-5.27-4.41-1.4.86-2.37,1.4-4.52,2.47l-6.56-8.92ZM269.79,172.04h19.57v4.95h-19.57v-4.95ZM273.44,198.39c3.33,2.26,6.24,3.76,9.57,5.05,4.73-2.04,6.13-3.23,8.17-5.05h-17.74Z" style="fill:#595757;"/></svg>