<?xml version="1.0" encoding="UTF-8"?><svg id="_レイヤー_1" xmlns="http://www.w3.org/2000/svg" viewBox="0 0 400 400"><path d="M200,390c-104.77,0-190-85.23-190-190S95.23,10,200,10s190,85.23,190,190-85.23,190-190,190Z" style="fill:#fff;"/><path d="M200,20c48.08,0,93.28,18.72,127.28,52.72,34,34,52.72,79.2,52.72,127.28s-18.72,93.28-52.72,127.28c-34,34-79.2,52.72-127.28,52.72s-93.28-18.72-127.28-52.72-52.72-79.2-52.72-127.28,18.72-93.28,52.72-127.28c34-34,79.2-52.72,127.28-52.72M200,0C89.54,0,0,89.54,0,200s89.54,200,200,200,200-89.54,200-200S310.46,0,200,0h0Z" style="fill:#005a52;"/><path d="M127.73,232.58c8.6-5.48,11.94-13.33,12.15-25.16h-7.1v-40.86h8.6c-.54-1.72-3.12-9.36-8.71-17.63l14.62-4.95c1.61,2.04,6.67,8.49,10.21,18.6l-10.54,3.98h17.42c4.62-9.03,7.53-18.39,8.71-22.69l16.67,3.66c-2.47,6.56-4.62,11.29-8.71,19.03h7.21v40.86h-15.38v20.75c0,2.04.43,2.58,1.94,2.58h2.79c1.4,0,1.94-1.18,2.04-3.44.11-1.83.11-8.39.11-10.22l13.23,4.09c-.43,7.63-.75,15.7-2.15,19.25-1.51,3.98-5.16,5.48-7.21,5.48h-17.53c-5.16,0-7.42-2.9-7.42-7.74v-30.75h-5.38c0,24.95-10.21,34.41-17.1,39.46l-8.49-10.65c0,3.66-.43,10.32-7.96,10.32h-12.04l-3.01-14.52c-2.15,8.71-3.55,11.4-5.27,15.05l-11.72-12.58c5.38-11.72,5.91-28.06,5.91-35.7v-52.04h34.09v85.81ZM111.93,231.08c2.04,0,2.69-.75,2.69-3.23v-14.62h-7.74c0,4.84-.32,9.89-1.94,17.85h6.99ZM107.41,162.15v11.18h7.2v-11.18h-7.2ZM107.41,187.1v11.94h7.2v-11.94h-7.2ZM148.16,181.08v11.83h24.62v-11.83h-24.62Z" style="fill:#595757;"/><path d="M303.66,247.21c-19.36-3.01-33.23-9.57-44.95-22.69-8.5,13.76-25.16,20-44.41,22.58l-7.74-16.02c5.16-.43,26.35-1.94,35.05-10h-33.33v-13.87h40.54c.32-1.4.54-2.26.64-3.87h-32.47v-54.73h29.57c.32-1.29.43-1.72,1.18-5.16h18.17c-.43,1.51-1.08,3.66-1.61,5.16h37.1v54.73h-36.24c-.11,1.18-.21,1.83-.43,3.87h45.27v13.87h-34.73c5.48,3.44,15.38,8.5,35.92,9.79l-7.53,16.34ZM233.01,160.11v4.41h52.15v-4.41h-52.15ZM233.01,173.66v4.52h52.15v-4.52h-52.15ZM233.01,187.85v4.62h52.15v-4.62h-52.15Z" style="fill:#595757;"/></svg>