<?xml version="1.0" encoding="utf-8"?>
<svg version="1.1" id="svg-facebook" xmlns="http://www.w3.org/2000/svg" xmlns:xlink="http://www.w3.org/1999/xlink" x="0px"
	 y="0px" viewBox="0 0 100 100" style="enable-background:new 0 0 100 100;" xml:space="preserve">
<style type="text/css">
	#svg-facebook .st0{fill:#38549E;}
	#svg-facebook .st1{fill:#FFFFFF;}
</style>
<g id="レイヤー_1_00000125586497320202728610000013350992552093682606_">
</g>
<g id="Layer_1">
	<g>
		<path class="st0" d="M82.5,100H17.4C7.8,100,0,92.2,0,82.5V17.4C0,7.8,7.8,0,17.4,0h65.1C92.2,0,100,7.8,100,17.4v65.1
			C100,92.2,92.2,100,82.5,100z"/>
		<path class="st1" d="M67.9,26.7V15.4c0,0-11.5-0.1-12.3-0.1c-5.2,0-12.7,6-12.7,12.7c0,7.6,0,12.1,0,12.1H32.1v12.8h10.7v31.8
			h12.6v-32h11.2l1.4-12.5H55.5c0,0,0-7.7,0-9.2c0-2.2,1.7-4.4,4.2-4.4C61.3,26.6,67.9,26.7,67.9,26.7z"/>
	</g>
</g>
</svg>
