<?xml version="1.0" encoding="utf-8"?>
<svg version="1.1" id="svg-line" xmlns="http://www.w3.org/2000/svg" xmlns:xlink="http://www.w3.org/1999/xlink" x="0px"
	 y="0px" viewBox="0 0 100 100" style="enable-background:new 0 0 100 100;" xml:space="preserve">
<style type="text/css">
	#svg-line .st0{fill:#1AD641;}
	#svg-line .st1{fill:#FFFFFF;}
</style>
<g id="svg-line_00000049221854474974033570000001471717896077337765_">
</g>
<g id="Layer_1">
	<g>
		<path class="st0" d="M82.5,100H17.4C7.8,100,0,92.2,0,82.5V17.4C0,7.8,7.8,0,17.4,0h65.1C92.2,0,100,7.8,100,17.4v65.1
			C100,92.2,92.2,100,82.5,100z"/>
		<g>
			<g>
				<g>
					<path class="st1" d="M36,50.2h-5.2v-12c0-1.1-0.9-2.1-2.1-2.1c-1.1,0-2.1,0.9-2.1,2.1v14.1c0,1.1,0.9,2.1,2.1,2.1H36
						c1.1,0,2.1-0.9,2.1-2.1C38.1,51.1,37.1,50.2,36,50.2z"/>
				</g>
				<g>
					<path class="st1" d="M41.4,54.3c-1.1,0-2.1-0.9-2.1-2.1V38.2c0-1.1,0.9-2.1,2.1-2.1c1.1,0,2.1,0.9,2.1,2.1v14.1
						C43.5,53.4,42.6,54.3,41.4,54.3z"/>
				</g>
				<g>
					<path class="st1" d="M60.8,38.2c0-1.1-0.9-2.1-2.1-2.1c-1.1,0-2.1,0.9-2.1,2.1v7.9l-7-9.2l0,0c0,0-0.1-0.1-0.1-0.1
						c0,0,0-0.1-0.1-0.1c0,0-0.1-0.1-0.1-0.1c0,0-0.1-0.1-0.1-0.1c0,0-0.1,0-0.1-0.1c0,0-0.1-0.1-0.1-0.1c0,0-0.1,0-0.1-0.1
						c0,0-0.1,0-0.1-0.1c0,0-0.1,0-0.1-0.1c0,0-0.1,0-0.1,0c0,0-0.1,0-0.1,0c0,0-0.1,0-0.1,0s-0.1,0-0.1,0c0,0-0.1,0-0.1,0
						s-0.1,0-0.1,0c0,0-0.1,0-0.1,0s-0.1,0-0.1,0s-0.1,0-0.1,0h0c0,0,0,0-0.1,0c0,0-0.1,0-0.1,0c0,0-0.1,0-0.1,0s-0.1,0-0.1,0
						c0,0-0.1,0-0.1,0c0,0-0.1,0-0.1,0s-0.1,0-0.1,0s-0.1,0-0.1,0s-0.1,0-0.1,0s-0.1,0-0.1,0c0,0-0.1,0-0.1,0.1c0,0-0.1,0-0.1,0.1
						c0,0-0.1,0.1-0.1,0.1l0,0l0,0c0,0-0.1,0.1-0.1,0.1s-0.1,0-0.1,0.1c0,0-0.1,0.1-0.1,0.1c0,0-0.1,0.1-0.1,0.1c0,0,0,0.1-0.1,0.1
						c0,0-0.1,0.1-0.1,0.1c0,0,0,0.1-0.1,0.1c0,0,0,0.1-0.1,0.1c0,0,0,0.1-0.1,0.1c0,0,0,0.1,0,0.1c0,0,0,0.1,0,0.1c0,0,0,0.1,0,0.1
						s0,0.1,0,0.1c0,0,0,0.1,0,0.1c0,0,0,0.1,0,0.1c0,0,0,0.1,0,0.1s0,0.1,0,0.1s0,0.1,0,0.1v0v14.1c0,1.1,0.9,2.1,2.1,2.1
						c1.1,0,2.1-0.9,2.1-2.1v-7.9l7,9.2c0,0,0,0,0,0c0,0.1,0.1,0.1,0.1,0.1c0,0,0,0,0,0.1c0.1,0.1,0.1,0.1,0.2,0.1c0,0,0,0,0.1,0
						c0,0,0.1,0.1,0.1,0.1c0,0,0.1,0,0.1,0c0,0,0.1,0.1,0.1,0.1c0,0,0.1,0,0.1,0c0.1,0,0.1,0,0.1,0.1c0,0,0,0,0.1,0
						c0.1,0,0.1,0,0.1,0.1c0,0,0,0,0.1,0c0.1,0,0.1,0,0.2,0h0c0.1,0,0.1,0,0.2,0l0,0l0,0l0,0c0.1,0,0.2,0,0.3,0c0,0,0,0,0.1,0
						c0.1,0,0.2,0,0.3-0.1h0c0.1,0,0.2-0.1,0.3-0.1h0c0.1-0.1,0.2-0.1,0.3-0.2h0l0,0c0,0,0.1-0.1,0.1-0.1s0.1,0,0.1-0.1
						c0,0,0.1-0.1,0.1-0.1c0,0,0.1-0.1,0.1-0.1c0,0,0-0.1,0.1-0.1c0,0,0-0.1,0.1-0.1c0,0,0-0.1,0.1-0.1c0,0,0-0.1,0.1-0.1
						c0,0,0-0.1,0.1-0.1c0,0,0-0.1,0-0.1c0,0,0-0.1,0-0.1c0,0,0-0.1,0-0.1s0-0.1,0-0.1c0,0,0-0.1,0-0.1c0,0,0-0.1,0-0.1
						c0,0,0-0.1,0-0.1s0-0.1,0-0.1s0-0.1,0-0.1v0L60.8,38.2L60.8,38.2z"/>
				</g>
				<g>
					<path class="st1" d="M72.5,47.3c1.1,0,2.1-0.9,2.1-2.1c0-1.1-0.9-2.1-2.1-2.1h-5.2v-2.9h5.3c1.1,0,2.1-0.9,2.1-2.1
						c0-1.1-0.9-2.1-2.1-2.1h-7.3c0,0,0,0-0.1,0s0,0-0.1,0c-1.1,0-2.1,0.9-2.1,2.1v14.1c0,1.1,0.9,2.1,2.1,2.1h7.3
						c1.1,0,2.1-0.9,2.1-2.1c0-1.1-0.9-2.1-2.1-2.1h-5.2v-2.9L72.5,47.3L72.5,47.3z"/>
				</g>
				<g>
					<g>
						<path class="st1" d="M48.8,86.3c-0.7,0-1.3-0.2-1.8-0.5l0,0c-0.6-0.4-1-0.9-1.3-1.5c-0.2-0.4-0.3-0.9-0.4-1.4
							c-0.1-1.1,0-2,0.2-2.8c0-0.2,0.1-0.5,0.1-0.7c0.1-0.7,0.1-1.5,0.1-2.3v-0.1c0-0.2,0-0.3-0.1-0.4l0-0.1c0,0-0.1,0-0.1,0l-0.1,0
							c-0.2-0.1-0.5-0.1-0.9-0.1c-2.2-0.3-4.8-0.6-7.4-1.3c-4.3-1.1-8.4-3.2-12.3-6c-3.1-2.3-5.8-4.9-7.9-7.8
							c-2.1-2.9-3.6-5.9-4.5-9c-1.6-5.8-0.9-12.1,1.9-18c2.4-5.2,6.5-9.8,11.8-13.4c6.2-4.2,13.4-6.6,21-7c9.9-1,20.2,1.9,28.2,7.9
							c5.2,3.9,9,8.8,11.2,14.2c2.4,6,2.6,12.6,0.6,18.3c-1.5,4.2-4.3,8.2-8.7,12.5c-6.1,6-13.4,10.7-20.4,15.1
							c-2.4,1.5-4.6,2.9-7.1,3.9c-0.4,0.2-0.9,0.4-1.6,0.5C49.1,86.3,48.9,86.3,48.8,86.3z M49.5,75.5c0.1,0.4,0.1,0.8,0.2,1l0,0.3
							c0.1,1.1,0,2.1-0.1,3.1c0,0.3-0.1,0.6-0.1,0.9c-0.1,0.4-0.1,0.8-0.1,1.2c2.2-0.9,4.2-2.2,6.5-3.6c7-4.4,13.9-8.9,19.7-14.6
							c4-3.8,6.4-7.3,7.7-10.9c1.7-4.7,1.5-10.3-0.6-15.3c-1.9-4.7-5.3-9-9.9-12.4c-7.2-5.4-16.4-8-25.3-7.1h-0.1
							c-6.8,0.3-13.3,2.5-18.9,6.3c-4.7,3.2-8.3,7.2-10.5,11.7c-2.3,4.8-2.9,10.4-1.6,15.1c0.7,2.6,2,5.1,3.8,7.6
							c1.9,2.6,4.3,4.9,7,6.9c3.4,2.5,7.1,4.4,10.9,5.4c2.3,0.6,4.8,1,6.8,1.2c0.5,0.1,1.1,0.1,1.7,0.3c0.9,0.3,1.6,0.8,2.1,1.4
							C49.1,74.3,49.4,74.9,49.5,75.5z"/>
					</g>
				</g>
			</g>
		</g>
	</g>
</g>
</svg>
