<?xml version="1.0" encoding="utf-8"?>

<svg version="1.1" id="svg-twitter" xmlns="http://www.w3.org/2000/svg" xmlns:xlink="http://www.w3.org/1999/xlink" x="0px"
	 y="0px" viewBox="0 0 100 100" style="enable-background:new 0 0 100 100;" xml:space="preserve">
<style type="text/css">
	#svg-twitter .st0{fill:#4FAAF0;}
	#svg-twitter .st1{fill:#FFFFFF;}
</style>
<g id="svg-twitter_00000168114279262669159350000017762226706469539004_">
</g>
<g id="Layer_1">
	<g>
		<path class="st0" d="M82.5,100H17.4C7.8,100,0,92.2,0,82.5V17.4C0,7.8,7.8,0,17.4,0h65.1C92.2,0,100,7.8,100,17.4v65.1
			C100,92.2,92.2,100,82.5,100z"/>
		<path class="st1" d="M75.2,24.4c0,0-4-4.8-10.9-4.6c-8.2,0.3-15.8,5.3-14.9,18.1c0,0-12.3,3.8-31.6-14.5c0,0-6.2,10.1,4.8,19.6
			c0,0-3.1,0.9-7.2-1.4c0,0-2.2,8.5,11.9,14.9c0,0-4.8,1.4-6.9,0c0,0,1.3,9,13.9,11.2c0,0-6.5,6.5-21.8,6.3c0,0,31.9,16.4,54.1-4.7
			c15.8-15,13.6-35,13.6-35s4.7-1.4,7.4-6.5c0,0-5.3,1.6-8.3,1.4c0,0,5.8-3.6,6.3-7.9C85.5,21.3,80.5,24.9,75.2,24.4z"/>
	</g>
</g>
</svg>
