<?xml version="1.0" encoding="utf-8"?>
<svg version="1.1" id="svg-youtube" xmlns="http://www.w3.org/2000/svg" xmlns:xlink="http://www.w3.org/1999/xlink" x="0px"
	 y="0px" viewBox="0 0 100 100" style="enable-background:new 0 0 100 100;" xml:space="preserve">
<style type="text/css">
	#svg-youtube .st0{fill:#E53935;}
	#svg-youtube .st1{fill:#FFFFFF;}
</style>
<g id="svg-youtube_00000119840692984196373530000018014297029457529244_">
</g>
<g id="Layer_1">
	<g>
		<path class="st0" d="M82.5,100H17.4C7.8,100,0,92.2,0,82.5V17.4C0,7.8,7.8,0,17.4,0h65.1C92.2,0,100,7.8,100,17.4v65.1
			C100,92.2,92.2,100,82.5,100z"/>
		<path class="st1" d="M71.6,26.3H28.3c-6.8,0-12.4,5.5-12.4,12.4v22.7c0,6.8,5.5,12.4,12.4,12.4h43.3c6.8,0,12.4-5.5,12.4-12.4
			V38.7C84,31.9,78.4,26.3,71.6,26.3z M51.9,56.7l-10.5,6.5V50.1V37.1l10.5,6.5l10.5,6.5L51.9,56.7z"/>
	</g>
</g>
</svg>
