<?xml version="1.0" encoding="utf-8"?>
<!-- Generator: Adobe Illustrator 16.0.0, SVG Export Plug-In . SVG Version: 6.00 Build 0)  -->
<!DOCTYPE svg PUBLIC "-//W3C//DTD SVG 1.1//EN" "http://www.w3.org/Graphics/SVG/1.1/DTD/svg11.dtd">
<svg version="1.1" id="レイヤー_1" xmlns="http://www.w3.org/2000/svg" xmlns:xlink="http://www.w3.org/1999/xlink" x="0px"
	 y="0px" width="12.572px" height="16px" viewBox="4.714 6 12.572 16" enable-background="new 4.714 6 12.572 16"
	 xml:space="preserve">
<path fill="#444444" d="M16.714,6c0.155,0,0.289,0.057,0.402,0.169c0.112,0.113,0.17,0.248,0.17,0.402v14.857
	c0,0.154-0.058,0.288-0.17,0.401C17.003,21.943,16.869,22,16.714,22H5.286c-0.154,0-0.289-0.057-0.402-0.17
	c-0.113-0.113-0.169-0.247-0.169-0.401V6.571c0-0.154,0.057-0.289,0.169-0.402C4.997,6.057,5.131,6,5.286,6H16.714z M9.286,8.571
	v0.572c0,0.083,0.027,0.151,0.081,0.205c0.054,0.053,0.122,0.08,0.205,0.081h0.572c0.083,0,0.151-0.027,0.205-0.081
	c0.053-0.054,0.08-0.122,0.081-0.205V8.571c0-0.083-0.027-0.152-0.081-0.205s-0.122-0.08-0.205-0.081H9.571
	c-0.083,0-0.152,0.027-0.205,0.081S9.286,8.488,9.286,8.571z M9.286,10.857v0.572c0,0.083,0.027,0.152,0.081,0.205
	s0.122,0.08,0.205,0.081h0.572c0.083,0,0.151-0.027,0.205-0.081c0.053-0.054,0.08-0.122,0.081-0.205v-0.572
	c0-0.083-0.027-0.151-0.081-0.205c-0.054-0.053-0.122-0.08-0.205-0.081H9.571c-0.083,0-0.152,0.027-0.205,0.081
	S9.286,10.774,9.286,10.857z M9.286,13.143v0.571c0,0.083,0.027,0.152,0.081,0.205S9.488,14,9.571,14h0.572
	c0.083,0,0.151-0.027,0.205-0.081c0.053-0.054,0.08-0.122,0.081-0.205v-0.571c0-0.083-0.027-0.152-0.081-0.205
	c-0.054-0.054-0.122-0.081-0.205-0.081H9.571c-0.083,0-0.152,0.027-0.205,0.081C9.313,12.991,9.286,13.06,9.286,13.143z
	 M9.286,15.429V16c0,0.084,0.027,0.151,0.081,0.205s0.122,0.081,0.205,0.081h0.572c0.083,0,0.151-0.027,0.205-0.081
	c0.053-0.054,0.08-0.122,0.081-0.205v-0.571c0-0.084-0.027-0.152-0.081-0.205c-0.054-0.054-0.122-0.081-0.205-0.081H9.571
	c-0.083,0-0.152,0.027-0.205,0.081C9.313,15.276,9.286,15.346,9.286,15.429z M8.143,18.286v-0.572c0-0.083-0.027-0.151-0.081-0.205
	c-0.053-0.053-0.122-0.08-0.205-0.08H7.286c-0.083,0-0.152,0.026-0.205,0.08S7,17.631,7,17.714v0.572
	c0,0.083,0.027,0.151,0.081,0.205c0.054,0.053,0.122,0.08,0.205,0.08h0.571c0.083,0,0.152-0.026,0.205-0.08
	C8.116,18.438,8.143,18.369,8.143,18.286z M8.143,16v-0.571c0-0.084-0.027-0.152-0.081-0.205c-0.053-0.054-0.122-0.081-0.205-0.081
	H7.286c-0.083,0-0.152,0.027-0.205,0.081C7.027,15.276,7,15.346,7,15.429V16c0,0.084,0.027,0.151,0.081,0.205
	s0.122,0.081,0.205,0.081h0.571c0.083,0,0.152-0.027,0.205-0.081C8.116,16.151,8.143,16.083,8.143,16z M8.143,13.714v-0.571
	c0-0.083-0.027-0.152-0.081-0.205c-0.053-0.054-0.122-0.081-0.205-0.081H7.286c-0.083,0-0.152,0.027-0.205,0.081
	C7.027,12.991,7,13.06,7,13.143v0.571c0,0.083,0.027,0.152,0.081,0.205S7.203,14,7.286,14h0.571c0.083,0,0.152-0.027,0.205-0.081
	C8.116,13.866,8.143,13.797,8.143,13.714z M8.143,11.429v-0.572c0-0.083-0.027-0.151-0.081-0.205
	c-0.053-0.053-0.122-0.08-0.205-0.081H7.286c-0.083,0-0.152,0.027-0.205,0.081S7,10.774,7,10.857v0.572
	c0,0.083,0.027,0.152,0.081,0.205s0.122,0.08,0.205,0.081h0.571c0.083,0,0.152-0.027,0.205-0.081
	C8.116,11.58,8.143,11.512,8.143,11.429z M8.143,9.143V8.571c0-0.083-0.027-0.152-0.081-0.205C8.009,8.313,7.94,8.286,7.857,8.286
	H7.286c-0.083,0-0.152,0.027-0.205,0.081S7,8.488,7,8.571v0.572c0,0.083,0.027,0.151,0.081,0.205
	c0.054,0.053,0.122,0.08,0.205,0.081h0.571c0.083,0,0.152-0.027,0.205-0.081C8.116,9.294,8.143,9.226,8.143,9.143z M12.714,20.571
	v-1.714c0-0.084-0.026-0.152-0.08-0.206c-0.054-0.053-0.122-0.08-0.205-0.08H9.571c-0.083,0-0.152,0.027-0.205,0.08
	c-0.053,0.054-0.08,0.123-0.081,0.206v1.714c0,0.084,0.027,0.152,0.081,0.205c0.054,0.054,0.122,0.081,0.205,0.081h2.857
	c0.084,0,0.151-0.027,0.205-0.081C12.687,20.724,12.714,20.654,12.714,20.571z M12.714,16v-0.571c0-0.084-0.026-0.152-0.08-0.205
	c-0.054-0.054-0.122-0.081-0.205-0.081h-0.571c-0.084,0-0.152,0.027-0.206,0.081c-0.053,0.053-0.08,0.122-0.08,0.205V16
	c0,0.084,0.027,0.151,0.08,0.205c0.054,0.054,0.123,0.081,0.206,0.081h0.571c0.084,0,0.151-0.027,0.205-0.081
	C12.687,16.151,12.714,16.083,12.714,16z M12.714,13.714v-0.571c0-0.083-0.026-0.152-0.08-0.205
	c-0.054-0.054-0.122-0.081-0.205-0.081h-0.571c-0.084,0-0.152,0.027-0.206,0.081c-0.053,0.053-0.08,0.122-0.08,0.205v0.571
	c0,0.083,0.027,0.152,0.08,0.205C11.705,13.973,11.774,14,11.857,14h0.571c0.084,0,0.151-0.027,0.205-0.081
	C12.687,13.866,12.714,13.797,12.714,13.714z M12.714,11.429v-0.572c0-0.083-0.026-0.151-0.08-0.205
	c-0.054-0.053-0.122-0.08-0.205-0.081h-0.571c-0.084,0-0.152,0.027-0.206,0.081c-0.053,0.054-0.08,0.122-0.08,0.205v0.572
	c0,0.083,0.027,0.152,0.08,0.205c0.054,0.053,0.123,0.08,0.206,0.081h0.571c0.084,0,0.151-0.027,0.205-0.081
	C12.687,11.58,12.714,11.512,12.714,11.429z M12.714,9.143V8.571c0-0.083-0.026-0.152-0.08-0.205s-0.122-0.08-0.205-0.081h-0.571
	c-0.084,0-0.152,0.027-0.206,0.081c-0.053,0.054-0.08,0.122-0.08,0.205v0.572c0,0.083,0.027,0.151,0.08,0.205
	c0.054,0.053,0.123,0.08,0.206,0.081h0.571c0.084,0,0.151-0.027,0.205-0.081C12.687,9.294,12.714,9.226,12.714,9.143z M15,18.286
	v-0.572c0-0.083-0.026-0.151-0.08-0.205c-0.054-0.053-0.122-0.08-0.206-0.08h-0.571c-0.083,0-0.151,0.026-0.205,0.08
	c-0.053,0.054-0.08,0.122-0.08,0.205v0.572c0,0.083,0.026,0.151,0.08,0.205c0.054,0.053,0.122,0.08,0.205,0.08h0.571
	c0.084,0,0.152-0.026,0.206-0.08C14.973,18.438,15,18.369,15,18.286z M15,16v-0.571c0-0.084-0.026-0.152-0.08-0.205
	c-0.054-0.054-0.122-0.081-0.206-0.081h-0.571c-0.083,0-0.151,0.027-0.205,0.081c-0.053,0.053-0.08,0.122-0.08,0.205V16
	c0,0.084,0.026,0.151,0.08,0.205s0.122,0.081,0.205,0.081h0.571c0.084,0,0.152-0.027,0.206-0.081C14.973,16.151,15,16.083,15,16z
	 M15,13.714v-0.571c0-0.083-0.026-0.152-0.08-0.205c-0.054-0.054-0.122-0.081-0.206-0.081h-0.571c-0.083,0-0.151,0.027-0.205,0.081
	c-0.053,0.053-0.08,0.122-0.08,0.205v0.571c0,0.083,0.026,0.152,0.08,0.205S14.06,14,14.143,14h0.571
	c0.084,0,0.152-0.027,0.206-0.081C14.973,13.866,15,13.797,15,13.714z M15,11.429v-0.572c0-0.083-0.026-0.151-0.08-0.205
	c-0.054-0.053-0.122-0.08-0.206-0.081h-0.571c-0.083,0-0.151,0.027-0.205,0.081c-0.053,0.054-0.08,0.122-0.08,0.205v0.572
	c0,0.083,0.026,0.152,0.08,0.205s0.122,0.08,0.205,0.081h0.571c0.084,0,0.152-0.027,0.206-0.081C14.973,11.58,15,11.512,15,11.429z
	 M15,9.143V8.571c0-0.083-0.026-0.152-0.08-0.205s-0.122-0.08-0.206-0.081h-0.571c-0.083,0-0.151,0.027-0.205,0.081
	c-0.053,0.054-0.08,0.122-0.08,0.205v0.572c0,0.083,0.026,0.151,0.08,0.205c0.054,0.053,0.122,0.08,0.205,0.081h0.571
	c0.084,0,0.152-0.027,0.206-0.081C14.973,9.294,15,9.226,15,9.143z"/>
</svg>
