<?xml version="1.0" encoding="utf-8"?>
<!-- Generator: Adobe Illustrator 16.0.0, SVG Export Plug-In . SVG Version: 6.00 Build 0)  -->
<!DOCTYPE svg PUBLIC "-//W3C//DTD SVG 1.1//EN" "http://www.w3.org/Graphics/SVG/1.1/DTD/svg11.dtd">
<svg version="1.1" id="レイヤー_1" xmlns="http://www.w3.org/2000/svg" xmlns:xlink="http://www.w3.org/1999/xlink" x="0px"
	 y="0px" width="100px" height="40px" viewBox="0 0 100 40" enable-background="new 0 0 100 40" xml:space="preserve">
<path fill="#F0F0F0" d="M55.837,22.264v4.866c0,0.176-0.063,0.327-0.191,0.455c-0.13,0.127-0.281,0.193-0.457,0.193h-3.89v-3.892
	h-2.597v3.892h-3.891c-0.174,0-0.326-0.065-0.456-0.193c-0.128-0.128-0.192-0.281-0.192-0.455v-4.866c0-0.005,0-0.016,0.005-0.029
	c0.002-0.014,0.004-0.023,0.004-0.031L50,17.402l5.827,4.803C55.834,22.217,55.837,22.237,55.837,22.264z M58.098,21.564
	l-0.628,0.75c-0.055,0.062-0.126,0.099-0.214,0.113h-0.028c-0.088,0-0.16-0.024-0.215-0.072L50,16.508l-7.013,5.848
	c-0.081,0.056-0.163,0.081-0.245,0.073c-0.087-0.015-0.158-0.052-0.211-0.114l-0.628-0.748c-0.055-0.066-0.078-0.145-0.071-0.236
	c0.008-0.092,0.044-0.162,0.11-0.22l7.287-6.068c0.216-0.176,0.474-0.264,0.771-0.264s0.555,0.087,0.771,0.264l2.473,2.067v-1.977
	c0-0.094,0.029-0.173,0.091-0.232c0.061-0.061,0.139-0.092,0.233-0.092h1.945c0.095,0,0.173,0.031,0.233,0.092
	c0.061,0.06,0.09,0.138,0.09,0.232v4.135l2.221,1.842c0.066,0.055,0.104,0.127,0.111,0.22C58.175,21.42,58.151,21.499,58.098,21.564
	L58.098,21.564z"/>
</svg>
