<?xml version="1.0" encoding="utf-8"?>
<!-- Generator: Adobe Illustrator 16.0.0, SVG Export Plug-In . SVG Version: 6.00 Build 0)  -->
<!DOCTYPE svg PUBLIC "-//W3C//DTD SVG 1.1//EN" "http://www.w3.org/Graphics/SVG/1.1/DTD/svg11.dtd">
<svg version="1.1" id="レイヤー_1" xmlns="http://www.w3.org/2000/svg" xmlns:xlink="http://www.w3.org/1999/xlink" x="0px"
	 y="0px" width="16px" height="12.571px" viewBox="6.001 8.714 16 12.571" enable-background="new 6.001 8.714 16 12.571"
	 xml:space="preserve">
<path fill="#444444" d="M22,12.768v7.089c0,0.393-0.14,0.729-0.42,1.009c-0.279,0.28-0.616,0.42-1.009,0.42H7.43
	c-0.393,0-0.729-0.14-1.009-0.42c-0.28-0.278-0.42-0.616-0.419-1.009v-7.089c0.262,0.292,0.563,0.551,0.902,0.777
	c2.154,1.464,3.633,2.491,4.437,3.081c0.339,0.25,0.615,0.445,0.826,0.584c0.211,0.14,0.493,0.283,0.844,0.429
	c0.352,0.146,0.679,0.219,0.982,0.219h0.018c0.303,0,0.631-0.072,0.981-0.219c0.352-0.146,0.633-0.289,0.845-0.429
	c0.211-0.139,0.486-0.334,0.825-0.584c1.012-0.732,2.494-1.759,4.446-3.081C21.447,13.313,21.744,13.054,22,12.768L22,12.768z
	 M22,10.143c0,0.47-0.146,0.919-0.438,1.348c-0.293,0.429-0.655,0.795-1.089,1.099c-2.238,1.553-3.631,2.52-4.179,2.902
	c-0.06,0.041-0.187,0.132-0.38,0.271c-0.193,0.141-0.354,0.254-0.482,0.34s-0.283,0.183-0.464,0.29
	c-0.182,0.107-0.353,0.188-0.513,0.241c-0.161,0.054-0.309,0.08-0.446,0.081h-0.018c-0.137,0-0.285-0.027-0.446-0.081
	c-0.161-0.054-0.332-0.134-0.513-0.241c-0.182-0.107-0.336-0.203-0.464-0.29c-0.128-0.086-0.289-0.2-0.482-0.34
	c-0.193-0.139-0.32-0.23-0.38-0.271c-0.542-0.382-1.321-0.925-2.339-1.63c-1.018-0.705-1.628-1.129-1.83-1.272
	c-0.369-0.25-0.717-0.593-1.045-1.031c-0.327-0.438-0.491-0.844-0.491-1.219c0-0.464,0.124-0.851,0.371-1.161
	c0.247-0.309,0.599-0.464,1.058-0.464h13.142c0.388,0,0.723,0.14,1.005,0.419S22.001,9.75,22,10.143L22,10.143z"/>
</svg>
