<?xml version="1.0" encoding="utf-8"?>
<!-- Generator: Adobe Illustrator 16.0.0, SVG Export Plug-In . SVG Version: 6.00 Build 0)  -->
<!DOCTYPE svg PUBLIC "-//W3C//DTD SVG 1.1//EN" "http://www.w3.org/Graphics/SVG/1.1/DTD/svg11.dtd">
<svg version="1.1" id="レイヤー_1" xmlns="http://www.w3.org/2000/svg" xmlns:xlink="http://www.w3.org/1999/xlink" x="0px"
	 y="0px" width="16px" height="12.572px" viewBox="6 6.714 16 12.572" enable-background="new 6 6.714 16 12.572"
	 xml:space="preserve">
<path fill="#444444" d="M10.571,16.714v1.715c0,0.237-0.083,0.44-0.25,0.607c-0.167,0.166-0.369,0.25-0.607,0.25H6.857
	c-0.238,0-0.44-0.084-0.606-0.25C6.083,18.868,6,18.666,6,18.429v-1.715c0-0.237,0.083-0.439,0.25-0.606
	c0.167-0.167,0.369-0.25,0.606-0.25h2.857c0.238,0,0.44,0.083,0.607,0.25S10.571,16.477,10.571,16.714z M10.571,12.143v1.714
	c0,0.238-0.083,0.44-0.25,0.607c-0.167,0.167-0.369,0.25-0.607,0.25H6.857c-0.238,0-0.44-0.083-0.606-0.25
	C6.083,14.297,6,14.095,6,13.857v-1.714c0-0.238,0.083-0.44,0.25-0.607c0.167-0.167,0.369-0.25,0.606-0.25h2.857
	c0.238,0,0.44,0.083,0.607,0.25C10.488,11.703,10.571,11.905,10.571,12.143z M22,16.714v1.715c0,0.237-0.084,0.44-0.25,0.607
	c-0.167,0.166-0.369,0.25-0.607,0.25h-8.571c-0.238,0-0.44-0.084-0.607-0.25c-0.167-0.168-0.25-0.37-0.25-0.607v-1.715
	c0-0.237,0.083-0.439,0.25-0.606c0.167-0.167,0.369-0.25,0.607-0.25h8.571c0.238,0,0.44,0.083,0.607,0.25
	C21.916,16.274,22,16.477,22,16.714z M10.571,7.571v1.714c0,0.238-0.083,0.44-0.25,0.607c-0.167,0.167-0.369,0.25-0.607,0.25H6.857
	c-0.238,0-0.44-0.083-0.606-0.25C6.083,9.726,6,9.523,6,9.286V7.571c0-0.238,0.083-0.44,0.25-0.607
	c0.167-0.167,0.369-0.25,0.606-0.25h2.857c0.238,0,0.44,0.083,0.607,0.25C10.488,7.131,10.571,7.333,10.571,7.571z M22,12.143v1.714
	c0,0.238-0.084,0.44-0.25,0.607c-0.167,0.167-0.369,0.25-0.607,0.25h-8.571c-0.238,0-0.44-0.083-0.607-0.25
	c-0.167-0.167-0.25-0.37-0.25-0.607v-1.714c0-0.238,0.083-0.44,0.25-0.607c0.167-0.167,0.369-0.25,0.607-0.25h8.571
	c0.238,0,0.44,0.083,0.607,0.25C21.916,11.703,22,11.905,22,12.143z M22,7.571v1.714c0,0.238-0.084,0.44-0.25,0.607
	c-0.167,0.167-0.369,0.25-0.607,0.25h-8.571c-0.238,0-0.44-0.083-0.607-0.25c-0.167-0.167-0.25-0.369-0.25-0.607V7.571
	c0-0.238,0.083-0.44,0.25-0.607c0.167-0.167,0.369-0.25,0.607-0.25h8.571c0.238,0,0.44,0.083,0.607,0.25
	C21.916,7.131,22,7.333,22,7.571z"/>
</svg>
