<svg xmlns="http://www.w3.org/2000/svg" version="1.1" viewBox="0 0 239.8 65.3">
  <defs>
    <style>
      .cls-1 {
        fill: #9bbaed;
      }

      .cls-2 {
        fill: #a3eded;
      }

      .cls-3 {
        fill: #2b67d5;
      }

      .cls-4 {
        fill: #ffdc00;
      }
    </style>
  </defs>
  <!-- Generator: Adobe Illustrator 28.6.0, SVG Export Plug-In . SVG Version: 1.2.0 Build 709)  -->
  <g>
    <g id="nami">
      <path class="cls-2" d="M0,35.9c4.6-2.3,9.4-4.1,14.3-5.7,4.9-1.6,9.9-2.9,14.9-3.9,10.1-2.1,20.4-3.1,30.7-3,10.3,0,20.6,1.4,30.7,3.7,5,1.2,10,2.7,14.9,4.5,2.4.9,4.9,1.8,7.2,2.8,2.3,1,4.7,1.9,7,2.7,9.5,3.3,19.3,5.6,29.3,6.7,5,.5,10,.8,15.1.8,5,0,10.1-.2,15.1-.7,10.1-.9,20.1-2.6,30.1-4.6,5-.9,10-2,15.1-2.8,2.5-.4,5.1-.7,7.7-.9,2.6-.2,5.2-.1,7.7.4v.2c-2.6-.2-5.1.1-7.6.5-2.5.4-5,1-7.4,1.6l-14.8,3.9c-5,1.2-10,2.5-15,3.5-5.1,1-10.2,1.8-15.3,2.4-20.5,2.3-41.8.1-61.3-7-2.4-.9-4.9-1.9-7.2-2.9-2.3-1-4.6-2-7-2.9-4.7-1.8-9.5-3.3-14.4-4.6-9.8-2.6-19.8-4-29.9-4.4-10.1-.4-20.3.3-30.3,1.9-5,.8-10,1.9-14.9,3.2-4.9,1.3-9.8,2.8-14.5,4.8v-.2Z"/>
      <path class="cls-1" d="M0,45.2c4.6-2.3,9.4-4.1,14.3-5.7,4.9-1.6,9.9-2.9,14.9-3.9,10.1-2.1,20.4-3.1,30.7-3,10.3,0,20.6,1.4,30.7,3.7,5,1.2,10,2.7,14.9,4.5,2.4.9,4.9,1.8,7.2,2.8,2.3,1,4.7,1.9,7,2.7,9.5,3.3,19.3,5.6,29.3,6.7,5,.5,10,.8,15.1.8,5,0,10.1-.2,15.1-.7,10.1-.9,20.1-2.6,30.1-4.6,5-.9,10-2,15.1-2.8,2.5-.4,5.1-.7,7.7-.9,2.6-.2,5.2-.1,7.7.4v.2c-2.6-.2-5.1.1-7.6.5-2.5.4-5,1-7.4,1.6l-14.8,3.9c-5,1.2-10,2.5-15,3.5-5.1,1-10.2,1.8-15.3,2.4-20.5,2.3-41.8.1-61.3-7-2.4-.9-4.9-1.9-7.2-2.9-2.3-1-4.6-2-7-2.9-4.7-1.8-9.5-3.3-14.4-4.6-9.8-2.6-19.8-4-29.9-4.4-10.1-.4-20.3.3-30.3,1.9-5,.8-10,1.9-14.9,3.2-4.9,1.3-9.8,2.8-14.5,4.8v-.2Z"/>
    </g>
    <g id="moji">
      <g>
        <g>
          <path class="cls-3" d="M31.1,32.2c-.6,0-1.1-.2-1.6-.6-1.9-1.8-3.4-3.1-4.4-3.8-1-.8-1.6-1.5-1.6-2.3s.3-1.6.9-2.4c.6-.8,1.4-1.2,2.2-1.2s1.2.3,2,.8c.8.6,1.8,1.3,2.9,2.3,1.1.9,1.9,1.7,2.3,2.2.4.5.6,1.2.6,1.9s-.4,1.4-1.1,2.1c-.7.7-1.5,1-2.3,1ZM27.2,52.6c-.8,0-1.6-.3-2.4-1-.8-.6-1.2-1.3-1.2-2s.2-1.4.5-2c1.7-2.9,3.6-6.7,5.7-11.5.4-1,1.2-1.5,2.4-1.5s1.7.3,2.4.8c.7.5,1,1.2,1,2.1s-.5,2.1-1.4,4.5c-.9,2.4-2,4.6-3.1,6.6s-1.9,3.2-2.3,3.5c-.4.3-1,.5-1.6.5ZM33.2,21.5c-.6,0-1.2-.2-1.6-.6-2.4-2.2-4.1-3.7-4.9-4.4-.8-.7-1.2-1.4-1.2-2.2s.3-1.5,1-2.2c.7-.7,1.5-1.1,2.4-1.1s1.3.3,2.1.8c.8.6,1.7,1.3,2.8,2.3,1,1,1.8,1.7,2.2,2.3.4.6.6,1.2.6,1.9s-.3,1.4-1,2.1c-.7.7-1.4,1.1-2.3,1.1ZM46.2,19.9c0,.8-.4,1.5-1.1,2-.7.5-1.5.7-2.4.7s-1.5-.4-1.9-1.2c-1.2-2.4-2.1-4.3-3-5.6-.3-.5-.5-1.1-.5-1.7s.4-1.2,1.1-1.8c.7-.6,1.5-.9,2.3-.9s1.5.3,2,1c.5.7,1.2,1.9,2.1,3.7.9,1.8,1.4,3,1.4,3.8ZM44.1,42.7v8.3c0,.7-.3,1.3-.9,1.7-.6.4-1.3.6-2.1.6s-1.5-.2-2.1-.6c-.6-.4-.9-1-.9-1.7v-23.4c0-2.9,1.4-4.3,4.3-4.3h5.8v-11.6c0-.7.3-1.3.9-1.7.6-.4,1.3-.6,2.1-.6s1.5.2,2.1.6c.6.4.9,1,.9,1.7v11.6h6c2.9,0,4.3,1.4,4.3,4.3v20.9c0,1.7-.4,2.9-1.3,3.5-.8.6-2.4,1-4.6,1s-4.8-.2-5.5-.7c-.7-.5-1-1.2-1-2.3s.2-1.8.7-2.3,1.2-.7,2.1-.6c1,0,1.7,0,2.3,0s.9-.1,1.1-.3c.2-.2.2-.6.2-1v-3.1h-14.5ZM44.1,31.2h14.5v-2.4c0-.6-.3-.9-.9-.9h-12.8c-.6,0-.9.3-.9.9v2.4ZM44.1,38.5h14.5v-3.1h-14.5v3.1ZM59.6,22.8c-.7,0-1.5-.3-2.2-.8-.7-.5-1.1-1.1-1.1-1.7s.1-1.1.3-1.6c1.1-2.1,2-4.2,2.7-6.1.4-.9,1.1-1.3,2.1-1.3s1.6.2,2.4.7c.7.5,1.1,1.1,1.1,1.9s-.5,1.9-1.5,4.2c-1,2.3-1.7,3.6-2.2,4-.5.4-1,.6-1.7.6Z"/>
          <path class="cls-3" d="M93,44c-1.2,2.2-2.8,4-4.9,5.3-2.1,1.3-4.5,2.3-7.1,2.9-2.7.6-4.5.9-5.6.9s-1.9-.2-2.4-.7c-.5-.5-.8-1.2-.8-2.2,0-1.5.8-2.4,2.4-2.6,3.8-.5,6.8-1.1,8.8-1.9,2-.8,3.6-2.1,4.7-3.9h-15.4c-.6,0-1-.2-1.3-.7-.3-.5-.5-1-.5-1.7s.2-1.3.5-1.7c.3-.5.8-.7,1.3-.7h16.8v-2.4h-7.7c-2.9,0-4.3-1.4-4.3-4.3v-12.5c0-2.9,1.4-4.3,4.3-4.3h6.3c.2-.6.4-1.4.6-2.3.2-1.4,1.2-2.1,3-2.1s1.6.2,2.3.6c.7.4,1.1,1,1.1,1.6s-.2,1-.5,2.1h9.5c2.9,0,4.3,1.4,4.3,4.3v12.5c0,2.9-1.4,4.3-4.3,4.3h-8.3v2.4h17.2c.6,0,1,.2,1.4.7.3.5.5,1,.5,1.7s-.2,1.2-.5,1.7c-.3.5-.8.7-1.4.7h-15.1c2.8,2.7,7.5,4.5,14.1,5.3,1.4.2,2.1,1,2.1,2.5s-.2,1.6-.7,2.2c-.5.6-1.2.8-2.1.8s-2.4-.2-4.6-.7-4-1.1-5.7-1.9c-1.7-.8-3.2-1.6-4.4-2.6-1.2-1-2.4-2.1-3.4-3.5ZM83.5,18.2v1.4h18.7v-1.4c0-.5-.2-.7-.7-.7h-17.3c-.5,0-.7.2-.7.7ZM83.5,25.1h18.7v-2.2h-18.7v2.2ZM83.5,30.1c0,.5.2.7.7.7h17.3c.5,0,.7-.2.7-.7v-1.7h-18.7v1.7Z"/>
        </g>
        <g>
          <path class="cls-3" d="M159.1,10.8v32.9c0,5.3-1.9,9.9-5.7,13.7-3.8,3.8-8.4,5.7-13.7,5.7s-9.9-1.9-13.7-5.7c-3.8-3.8-5.7-8.3-5.7-13.7h10.9c0,2.4.8,4.4,2.5,6,1.7,1.6,3.7,2.5,6,2.5s4.4-.8,6-2.5c1.7-1.6,2.5-3.6,2.5-6v-22h-27.9v-10.9h38.7Z"/>
          <path class="cls-3" d="M205.5,10.8v32.9c0,5.3-1.9,9.9-5.7,13.7-3.8,3.8-8.4,5.7-13.7,5.7s-9.9-1.9-13.7-5.7c-3.8-3.8-5.7-8.3-5.7-13.7V10.8h38.7ZM194.7,21.6h-17v22c0,2.4.8,4.4,2.5,6,1.7,1.6,3.7,2.5,6,2.5s4.4-.8,6-2.5c1.7-1.6,2.5-3.6,2.5-6v-22Z"/>
        </g>
        <g>
          <path class="cls-3" d="M34.3,63c0-.3,0-.5.2-.6.2-.1.4-.2.6-.2s.4,0,.5.1c.1,0,.2.2.2.4,0,.4.2.6.4.8.2.2.4.3.7.3s.5,0,.7-.3c.2-.2.3-.4.3-.7s-.1-.6-.4-.9c-.2-.3-.7-.6-1.3-1-.5-.3-.8-.6-1.1-.9-.3-.3-.4-.6-.5-.9,0-.3-.1-.6-.1-.9,0-.6.2-1.2.7-1.6.5-.4,1-.6,1.7-.6s1.5.2,1.8.7c.4.5.6,1,.6,1.4s0,.4-.2.6c-.1.1-.3.2-.6.2-.4,0-.6-.2-.7-.6-.1-.7-.4-1-.9-1s-.5,0-.7.3c-.1.2-.2.4-.2.7s0,.5.3.8c.2.2.6.6,1.3,1,.6.4,1.1.8,1.5,1.2.3.4.5.9.5,1.5s-.2,1.4-.7,1.8c-.5.5-1.1.7-1.8.7s-1.4-.2-1.9-.6c-.5-.4-.7-1-.8-1.6Z"/>
          <path class="cls-3" d="M43,59.4c.2-.2.4-.4.7-.5.3-.1.6-.2.8-.2.5,0,.9.2,1.2.5.3.4.5.9.5,1.5v3.9c0,.2,0,.4-.2.5-.1.1-.3.2-.5.2s-.4,0-.5-.2c-.1-.1-.2-.3-.2-.5v-3.5c0-.6-.2-.9-.6-.9s-.5.1-.8.3c-.2.2-.3.5-.3.8v3.3c0,.2,0,.4-.2.5-.1.1-.3.2-.5.2s-.4,0-.5-.2c-.1-.1-.2-.3-.2-.5v-7.9c0-.2,0-.4.2-.5s.3-.2.5-.2.4,0,.5.2.2.3.2.5v2.7Z"/>
          <path class="cls-3" d="M53.3,61.9c0,1-.2,1.9-.7,2.4-.5.6-1.1.9-1.8.9s-1.4-.3-1.8-.9c-.5-.6-.7-1.4-.7-2.4s.2-1.9.7-2.4c.5-.6,1.1-.9,1.8-.9s1.4.3,1.8.9c.5.6.7,1.4.7,2.4ZM49.6,61.9c0,.6.1,1.2.3,1.5.2.4.5.5.8.5s.6-.2.8-.5c.2-.4.3-.9.3-1.5s-.1-1.1-.3-1.5c-.2-.4-.5-.5-.8-.5s-.6.2-.8.5c-.2.4-.3.9-.3,1.5Z"/>
          <path class="cls-3" d="M57.7,65.3c-.6,0-1.2-.1-1.6-.4-.4-.3-.7-.7-.9-1.2,0,0,0-.2,0-.3s0-.3.2-.4c.2-.1.3-.2.5-.2.3,0,.5.1.7.4.2.5.6.8,1.1.8s.5,0,.7-.2c.2-.1.2-.3.2-.5s0-.4-.3-.5c-.2-.1-.6-.3-1.3-.6-.6-.2-1-.4-1.3-.7s-.5-.7-.5-1.2.2-.9.6-1.3c.4-.3,1-.5,1.7-.5s1.2.2,1.6.5c.4.3.6.7.6.9s0,.4-.3.5c-.2.1-.4.2-.6.2s-.4-.1-.5-.4c0-.2-.2-.3-.4-.4-.2,0-.4-.2-.6-.2s-.4,0-.5.2c-.1,0-.2.2-.2.4s0,.4.3.5c.2.1.6.3,1.2.5s1.1.5,1.4.8c.3.3.5.7.5,1.2s-.2,1.1-.7,1.4c-.4.4-1,.5-1.8.5Z"/>
          <path class="cls-3" d="M63.7,59.4c.2-.2.4-.4.7-.5.3-.1.6-.2.8-.2.5,0,.9.2,1.2.5.3.4.5.9.5,1.5v3.9c0,.2,0,.4-.2.5-.1.1-.3.2-.5.2s-.4,0-.5-.2c-.1-.1-.2-.3-.2-.5v-3.5c0-.6-.2-.9-.6-.9s-.5.1-.8.3c-.2.2-.3.5-.3.8v3.3c0,.2,0,.4-.2.5-.1.1-.3.2-.5.2s-.4,0-.5-.2c-.1-.1-.2-.3-.2-.5v-7.9c0-.2,0-.4.2-.5s.3-.2.5-.2.4,0,.5.2.2.3.2.5v2.7Z"/>
          <path class="cls-3" d="M72.4,64.5c-.5.5-1.1.8-1.7.8s-.9-.2-1.2-.5c-.3-.4-.5-.9-.5-1.5v-3.9c0-.2,0-.4.2-.5.1-.1.3-.2.5-.2s.4,0,.5.2c.1.1.2.3.2.5v3.5c0,.6.2.9.6.9s.5-.1.8-.3c.2-.2.3-.5.3-.8v-3.3c0-.2,0-.4.2-.5.1-.1.3-.2.5-.2s.4,0,.5.2c.1.1.2.3.2.5v5.2c0,.2,0,.4-.2.5-.1.1-.3.2-.5.2-.3,0-.5-.1-.6-.4v-.3Z"/>
          <path class="cls-3" d="M84.5,61.6v2.9c0,.2,0,.4-.2.5-.2.1-.3.2-.6.2s-.4,0-.6-.2c-.2-.1-.2-.3-.2-.5v-7.2c0-.8.4-1.1,1.1-1.1h1.1c.9,0,1.6.2,2.1.8.5.5.7,1.1.7,1.9s-.2,1.5-.6,2c-.4.5-1.1.8-1.9.8h-.8ZM84.5,60.3h.6c.8,0,1.2-.5,1.2-1.5s-.1-.8-.3-1c-.2-.2-.5-.3-.9-.3h-.4c-.1,0-.2,0-.2.2v2.6Z"/>
          <path class="cls-3" d="M91.2,61.2v3.3c0,.2,0,.4-.2.5-.1.1-.3.2-.5.2s-.4,0-.5-.2c-.1-.1-.2-.3-.2-.5v-7.3c0-.8.4-1.1,1.1-1.1h1.1c.8,0,1.4.2,1.9.7.4.4.6,1.1.6,1.9s-.1,1-.4,1.4c-.2.4-.6.7-1,.9l1.5,3.1c0,.1,0,.2,0,.3,0,.2,0,.4-.3.5-.2.1-.4.2-.6.2-.3,0-.6-.2-.7-.5l-1.4-3.5h-.5ZM91.2,59.9h.6c.3,0,.6-.1.8-.3.2-.2.3-.5.3-.9s0-.7-.3-.9c-.2-.2-.5-.3-.8-.3h-.4c-.1,0-.2,0-.2.2v2.3Z"/>
          <path class="cls-3" d="M101.6,60.6c0,1.4-.2,2.5-.7,3.4-.4.9-1.1,1.3-2,1.3s-1.5-.4-2-1.2c-.4-.8-.7-2-.7-3.4s.2-2.6.7-3.4c.4-.8,1.1-1.3,2-1.3s1.5.4,2,1.3c.4.9.6,2,.6,3.3ZM99,63.9c.3,0,.6-.2.7-.7.2-.4.3-1.3.3-2.7s0-2.2-.3-2.6c-.2-.4-.4-.6-.7-.6s-.5.2-.7.6c-.2.4-.3,1.3-.3,2.7s0,2.3.3,2.7c.2.4.4.6.7.6Z"/>
        </g>
      </g>
    </g>
    <g id="maru">
      <path class="cls-4" d="M156.4,0c-7,0-12.6,5.4-12.6,12s5.7,12,12.6,12,12.6-5.4,12.6-12-5.6-12-12.6-12ZM156.4,16.8c-2.8,0-5-2.2-5-4.8s2.3-4.8,5-4.8,5,2.2,5,4.8-2.3,4.8-5,4.8Z"/>
    </g>
  </g>
</svg>