<svg xmlns="http://www.w3.org/2000/svg" version="1.1" viewBox="0 0 2357.2 473.4">
  <defs>
    <style>
      .cls-1 {
        isolation: isolate;
      }

      .cls-2 {
        fill: #0f5371;
      }
    </style>
  </defs>
  <!-- Generator: Adobe Illustrator 28.6.0, SVG Export Plug-In . SVG Version: 1.2.0 Build 709)  -->
  <g>
    <g id="_レイヤー_1" data-name="レイヤー_1">
      <g id="_レイヤー_1-2" data-name="_レイヤー_1">
        <g id="tel">
          <g id="_x32_">
            <g>
              <path class="cls-2" d="M15.2,177.8v39.8c30.6,0,59.1,5.9,83.7,15.7,4.6,1.8,9,3.8,13.4,5.9,9.9-4.7,20.4-8.8,31.7-12.2,20.1-5.9,42.3-9.3,65.8-9.3s59.3,5.9,84,15.7c4.6,1.8,9,3.8,13.4,5.9,9.9-4.7,20.4-8.8,31.7-12.2,20.1-5.9,42.1-9.3,65.4-9.3v-39.8H15.2s0-.2,0-.2Z"/>
              <path class="cls-2" d="M258.8,328.8c0,10,3,19.3,8.3,27,5.2,7.8,12.6,13.9,21.3,17.6,5.8,2.4,12.1,3.8,18.8,3.8,10,0,19.3-3,27-8.3s13.9-12.6,17.6-21.3c2.4-5.8,3.8-12.1,3.8-18.8s-1-9.9-3.1-15.2-5.3-10.9-9.6-16.4c-8.2-10.6-20.4-21-35.6-29.7-11.7,6.7-21.6,14.4-29.3,22.3-8.2,8.5-13.8,17.3-16.6,25.5-1.7,4.7-2.4,9.2-2.4,13.4h-.2,0Z"/>
              <path class="cls-2" d="M354.5,272.4c10.1,10.6,17.9,22.2,22.3,34.6,2.5,7.1,3.9,14.4,3.9,21.8,0,15.2-4.6,29.3-12.5,41s-19.1,21-32.3,26.6c-8.8,3.7-18.5,5.8-28.6,5.8-15.2,0-29.3-4.6-41.1-12.5-11.7-7.9-21-19.1-26.6-32.3-3.7-8.8-5.8-18.5-5.8-28.6s3.1-22,8.4-32.2c5.3-10.2,12.9-19.8,22.2-28.6,4.9-4.6,10.2-8.9,15.9-13-3.9-1.4-7.8-2.7-11.9-4-17.9-5.2-37.7-8.4-58.7-8.4s-49.8,4.6-70.5,12.2c7.6,5.4,14.4,11.2,20.4,17.5,10.1,10.6,17.9,22.2,22.2,34.6,2.5,7.1,3.9,14.4,3.9,21.8,0,15.2-4.6,29.3-12.5,41s-19.1,21-32.3,26.6c-8.8,3.7-18.5,5.8-28.6,5.8-15.2,0-29.3-4.6-41.1-12.5-11.7-7.9-21-19.1-26.6-32.3-3.7-8.8-5.8-18.5-5.8-28.6s3.1-22,8.4-32.2,12.9-19.8,22.2-28.6c4.9-4.6,10.2-8.9,15.9-13-3.9-1.4-7.8-2.7-11.9-4-17.8-5.2-37.5-8.3-58.3-8.4v190.4h389v-190.2c-25.6,0-49.5,4.6-70.1,12.2,7.6,5.4,14.4,11.2,20.4,17.5h.1Z"/>
              <path class="cls-2" d="M63.9,328.8c0,10,3,19.3,8.3,27,5.2,7.8,12.6,13.9,21.3,17.6,5.8,2.4,12.1,3.8,18.8,3.8,10,0,19.3-3,27-8.3s13.9-12.6,17.6-21.3c2.4-5.8,3.8-12.1,3.8-18.8s-1-9.9-3.1-15.2-5.3-10.9-9.6-16.4c-8.2-10.6-20.4-21-35.6-29.7-11.7,6.7-21.6,14.4-29.3,22.3-8.2,8.5-13.8,17.3-16.6,25.5-1.7,4.7-2.4,9.2-2.4,13.4h-.2Z"/>
            </g>
          </g>
          <g class="cls-1">
            <g class="cls-1">
              <path class="cls-2" d="M585.7,217.7c20,0,35.7,5.5,47.2,16.5s17.3,27.6,17.3,49.6-3.6,39.3-10.9,57.5c-7.3,18.1-18.4,33.2-33.3,45-14.9,11.9-32.3,17.8-52.1,17.8-42.7,0-64-22-64-66.1s0-5,.3-7.9c.2-2.9.5-5.8,1-8.9l1.8-13c2.7-16.6,7.9-31.7,15.6-45.1,7.7-13.5,18.3-24.4,31.8-32.8,13.5-8.4,28.6-12.6,45.3-12.6ZM579.3,257.3c-15.7,0-26.8,16.8-33.3,50.4l-2.5,16.5-1.5,14.3c0,17.1,6.1,25.7,18.3,25.7s17-4.9,22.1-14.6c5.1-9.8,9.3-23.5,12.7-41.4,2-10.7,3-19.2,3-25.5,0-17-6.3-25.5-18.8-25.5h0Z"/>
              <path class="cls-2" d="M688.8,259.3c31.5,0,52.1-13.9,61.7-41.7h40.1l-32.3,182.1h-52.6l18.3-104.6h-41.7l6.4-35.8h0Z"/>
              <path class="cls-2" d="M845.8,292.1c2.5-14.2,7.1-26.8,13.6-37.7,6.5-10.9,16-19.8,28.6-26.5,6.8-3.4,13.8-5.9,21.1-7.6,3.4-.7,7.4-1.3,12.2-1.8,4.7-.5,9.3-.8,13.7-.8,21,0,36.6,4.4,46.7,13.2,10.2,8.8,15.2,20.3,15.2,34.5s-3.1,22.3-9.4,31.8c-1.5,2.4-3.1,4.7-4.8,6.9s-3.6,4.2-5.6,6.1c-3.6,3.6-7.9,7.1-13,10.7-8,5.1-20.7,12.3-38.1,21.6l-27.7,14.2h83.3l-7.6,43.2h-150.6c0-13,5.7-26,17-38.9,10.8-12.2,27.1-24.6,48.8-37.1,13.5-7.4,24.1-13.9,31.8-19.4,7.6-5.5,13-10.3,16.1-14.5,3.1-4.1,5.2-9,6.2-14.6l.3-3.3c0-3.6-1.4-6.6-4.1-9.1-3.7-3.7-8.6-5.6-14.5-5.6s-14.9,2.8-20.4,8.3-9.3,14.4-11.3,26.5h-47.5Z"/>
              <path class="cls-2" d="M1094.7,217.7c20,0,35.7,5.5,47.2,16.5s17.3,27.6,17.3,49.6-3.6,39.3-10.9,57.5c-7.3,18.1-18.4,33.2-33.3,45-14.9,11.9-32.3,17.8-52.1,17.8-42.7,0-64-22-64-66.1s0-5,.3-7.9c.2-2.9.5-5.8,1-8.9l1.8-13c2.7-16.6,7.9-31.7,15.6-45.1,7.7-13.5,18.3-24.4,31.8-32.8,13.5-8.4,28.6-12.6,45.3-12.6ZM1088.3,257.3c-15.7,0-26.8,16.8-33.3,50.4l-2.5,16.5-1.5,14.3c0,17.1,6.1,25.7,18.3,25.7s17-4.9,22.1-14.6c5.1-9.8,9.3-23.5,12.7-41.4,2-10.7,3-19.2,3-25.5,0-17-6.3-25.5-18.8-25.5h0Z"/>
              <path class="cls-2" d="M1172.2,311.4h67.8l-7.9,46.2h-68.3l8.4-46.2Z"/>
              <path class="cls-2" d="M1269.4,292.1c2.5-14.2,7.1-26.8,13.6-37.7,6.5-10.9,16-19.8,28.6-26.5,6.8-3.4,13.8-5.9,21.1-7.6,3.4-.7,7.4-1.3,12.2-1.8,4.7-.5,9.3-.8,13.7-.8,21,0,36.6,4.4,46.7,13.2,10.2,8.8,15.2,20.3,15.2,34.5s-3.1,22.3-9.4,31.8c-1.5,2.4-3.1,4.7-4.8,6.9-1.7,2.2-3.6,4.2-5.6,6.1-3.6,3.6-7.9,7.1-13,10.7-8,5.1-20.7,12.3-38.1,21.6l-27.7,14.2h83.3l-7.6,43.2h-150.6c0-13,5.7-26,17-38.9,10.8-12.2,27.1-24.6,48.8-37.1,13.5-7.4,24.1-13.9,31.8-19.4,7.6-5.5,13-10.3,16.1-14.5,3.1-4.1,5.2-9,6.2-14.6l.3-3.3c0-3.6-1.4-6.6-4.1-9.1-3.7-3.7-8.6-5.6-14.5-5.6s-14.9,2.8-20.4,8.3-9.3,14.4-11.3,26.5h-47.5,0Z"/>
              <path class="cls-2" d="M1451.8,259.3c31.5,0,52.1-13.9,61.7-41.7h40.1l-32.3,182.1h-52.6l18.3-104.6h-41.7l6.4-35.8h0Z"/>
              <path class="cls-2" d="M1624.5,306.1c-6.1-3.9-10.5-7.9-13.2-11.9l-3-6.9-1-8.1,1-9.9c1.2-9,5.1-17.2,11.7-24.8,6.6-7.5,16.1-13.9,28.4-19.2,6.1-2.4,12.4-4.1,19-5.3,3.4-.5,6.9-.9,10.5-1.3,3.6-.3,7.5-.5,11.6-.5,14.1,0,25.8,2,35.3,6.1s16.2,9.3,20.2,15.7c4,6.4,6,13.4,6,20.8s-2.6,18.8-7.7,26.5c-5.2,7.7-12.7,13.4-22.5,17.1,15.6,6.6,23.4,17.7,23.4,33.4l-1,10.4c-2,10.2-6.7,19.5-14.1,27.9s-17.1,15.2-29.3,20.2c-5.8,2.4-12.4,4.2-19.8,5.6-3.2.7-6.6,1.2-10.3,1.5-3.6.3-7.9.5-12.8.5-22.4,0-39.5-4.5-51.4-13.5s-17.9-20.1-17.9-33.4l.3-7.4,1.5-5.6c2.4-10,6.2-17.7,11.6-22.9s13.2-10.4,23.7-15.3l-.2.3h0ZM1670.8,320.8c-15.4,0-25.1,7.7-29,23v5.1c0,4.6,1.9,8.6,5.7,12.1,3.8,3.5,8.9,5.2,15.5,5.2s14.7-2.4,20.1-7.3c5.4-4.8,8-11.2,8-19s-1.9-10.9-5.6-14.2-8.6-5-14.7-5h0ZM1682.7,254c-14.2,0-23.4,7.6-27.4,22.9,0,10.2,6.6,15.2,19.8,15.2s13.2-2,18.3-6.1,7.6-9.5,7.6-16.3-1.6-8.1-4.7-11.2c-3.1-3-7.7-4.6-13.6-4.6h0Z"/>
              <path class="cls-2" d="M1765.5,311.4h67.8l-7.9,46.2h-68.3l8.4-46.2Z"/>
              <path class="cls-2" d="M1871.7,220.7h144.3l-7.4,40.1c-14.2,10.3-27.1,23.5-38.7,39.4-11.6,15.9-21,32.3-28.3,49-7.3,16.8-12.7,33.6-16.3,50.5h-55.1c6.4-24.6,16.7-48.5,30.9-71.8,14.1-23.3,32.5-44.7,55-64.1h-91.9l7.6-43.2h0Z"/>
              <path class="cls-2" d="M2016.4,320l101.1-99.3h49.3l-17.8,102.1h22.2l-6.9,39.9h-22.3l-6.9,37.1h-50l6.3-37.1h-82.3l7.4-42.7h-.1ZM2055.4,322.7h42.7c0,.1,9.9-54.6,9.9-54.6l-52.6,54.6h0Z"/>
              <path class="cls-2" d="M2186.1,320l101.1-99.3h49.3l-17.8,102.1h22.2l-6.9,39.9h-22.3l-6.9,37.1h-50l6.3-37.1h-82.3l7.4-42.7h-.1ZM2225.1,322.7h42.7c0,.1,9.9-54.6,9.9-54.6l-52.6,54.6h0Z"/>
            </g>
          </g>
        </g>
      </g>
      <g>
        <path class="cls-2" d="M51.4,94.3c-6.7,1-12.2,2.3-12.2,13.8v2.5h55.4v13.9H24.1v-12.2c0-17.7,4.3-28.7,21.9-31.3l21.3-3.2c8.6-1.3,12.7-3.2,12.7-12.9s-2.4-13.8-19.4-13.8-19.8,4.9-20,16.4h-15c0-16.5,2.8-30.2,34.3-30.2s35.2,3.3,35.2,27.1-1,13.1-4.9,17.4c-4.4,4.7-9.7,7.9-18.3,9.2l-20.5,3.2Z"/>
        <path class="cls-2" d="M171.1,38.3v54.4h13.5v13.9h-13.5v18h-15.2v-18h-48.4v-15.9l43-52.4h20.6ZM155.9,51.6l-32.9,41h32.9v-41Z"/>
        <path class="cls-2" d="M196.5,35.5h35.4v84.2h-23v8.1h-12.4V35.5ZM208.8,48.5v22.5h10.9v-22.5h-10.9ZM208.8,82.8v24.2h10.9v-24.2h-10.9ZM235.4,84.9h37.9v-9.1h-38.9v-12.8h24.4v-10.5h-20.9v-12.6h20.9v-8.6h13.5v8.6h21.6v12.6h-21.6v10.5h24.7v12.8h-10.2v9.1h9.3v12.9h-9.3v25.2c0,3.2,0,11.3-10.5,11.3h-18.8l-2.4-13.4h15.8c1.1,0,2.4,0,2.4-2.3v-20.8h-37.9v-12.9ZM247.4,98.4c7.7,8.3,10.8,13.2,13.9,18.5l-11.8,7.3c-3.6-7.1-6.8-11.5-13.1-19.2l11.1-6.7Z"/>
        <path class="cls-2" d="M310.3,35.3h43.1v41.1h-30.2v58.1h-12.9V35.3ZM323.2,45.4v6.2h17.5v-6.2h-17.5ZM323.2,60v6.3h17.5v-6.3h-17.5ZM383.1,121.5h7.4c2.6,0,2.7-1.6,2.7-3.2v-41.9h-31.5v-41.1h44.4v88.2c0,3.9-1.1,10.9-8.3,10.9h-18.7l-1.8-10.6h-44.3v-41.6h50v39.2ZM345.4,92.3v6.5h25.4v-6.5h-25.4ZM345.4,106.8v6.8h25.4v-6.8h-25.4ZM374.4,45.4v6.2h18.9v-6.2h-18.9ZM374.4,60v6.3h18.9v-6.3h-18.9Z"/>
        <path class="cls-2" d="M435.2,68.5c-4.1,4.3-5.8,5.8-8.1,7.7l-9.1-11.8c12.2-9.2,20.6-22.1,23.4-33.6l14.2,2.5c-.7,2.4-1.1,3.7-2.8,8.1h65.6v13h-34v12.9h30.5v12.7h-30.5v17.5h38.2v13h-38.2v23.9h-13.9v-23.9h-51v-13h15.8v-29ZM470.5,67.3v-12.9h-24.6c-2.5,3.8-5.1,7.7-9.5,12.9h34.2ZM448.8,80v17.5h21.7v-17.5h-21.7Z"/>
        <path class="cls-2" d="M576.4,134.5v-32.1h-26.4v5.6h-13.6v-58.7h40v-18h13.9v18h40.7v58.7h-13.8v-5.6h-26.9v32.1h-13.9ZM550.1,62.7v26.4h26.4v-26.4h-26.4ZM590.4,62.7v26.4h26.9v-26.4h-26.9Z"/>
        <path class="cls-2" d="M660.1,56.1c-4.4,3.6-6,4.5-8.5,5.8l-8.1-10.8c15.3-8.4,19.7-16.5,21.7-20.8l13.1,2.5c-.9,2.2-1.4,3.5-3.8,7.1h70.7v12h-9.6v13.5h12.5v12.2h-12.5v13.7h9.6v12h-97.4v-12h11.8v-13.7h-14.4v-12.2h15v-9.3ZM669.2,109.5c-5.1,16.5-9.4,22.1-13.2,26.1l-11.4-8.4c3.3-3.3,8.1-8.9,12.5-21.5l12.2,3.8ZM671.4,52v13.5h9.7v-13.5h-9.7ZM671.4,77.6v13.7h9.7v-13.7h-9.7ZM688.5,108.2c1.4,7.3,1.9,19.8,1.8,25.2l-13.7.2c.2-3.6.5-7.9.5-14.2s-.1-8.4-.3-10.8l11.7-.3ZM692.3,52v13.5h10v-13.5h-10ZM692.3,77.6v13.7h10v-13.7h-10ZM710.6,107.2c.9,2.2,6.5,16.1,7.3,25.5l-13.6.9c-1.5-11.8-3.1-17.4-5.9-25.4l12.2-1ZM713.2,52v13.5h10.3v-13.5h-10.3ZM713.2,77.6v13.7h10.3v-13.7h-10.3ZM733.5,104.9c6,7.6,9.7,13.6,14.9,23.5l-12.5,6.7c-1.4-3.5-4.1-10.1-14.2-25l11.8-5.3Z"/>
        <path class="cls-2" d="M767.4,83.8c-3,3.8-4.5,5.4-6.9,7.6l-4.4-18c9-10.6,15.4-23.6,18.1-42.3l13.9,1.3c-.8,5.6-2.2,14.9-7.3,27.4v74.8h-13.4v-50.8ZM781.7,108.9c13.1-12.5,23.2-27.7,30.1-44.6h-25.1v-13.2h29.2v-19.8h13.6v19.8h31.1v13.2h-27.4c2,4.9,10,26.1,29.2,43.8l-8.6,13.9c-6.2-6-15.3-15.5-24.3-38v50.6h-13.6v-52.3c-9.4,21.6-19.3,32.7-25.4,39.4l-8.9-12.8Z"/>
        <path class="cls-2" d="M935.8,50.4c-2.8,3.5-6.2,7.4-14,14.8l-8.6-11.2c8.8-6.8,14.1-13.1,19.7-23.8l14.6,2.6c-1.6,2.7-2.1,3.5-3.4,5.7h73v11.8h-81.2ZM969,132.3c-3-3-8.8-9-17.8-16.3-14.7,12-24.3,16.3-29.1,18.5l-8.2-12.3c11.4-4.4,19.6-8.5,26.9-14.1-7.8-5.6-13.6-8.9-18.1-11.3l8-10c3.1,1.5,8.1,4.2,19.9,12.2,3.9-4.3,6.8-8,10.6-13.8l11.5,6.1c-2.2,3.6-5.4,8.9-11.8,15.4,9.7,7.6,14.8,11.9,17.8,14.8l-9.7,10.7ZM915.5,72.3h86.2c-.4,6.3-1.4,22.5-1.4,31.5s0,14.7,3.2,14.7,4.7-9.2,6.1-15.5l9.3,9.1c-1.8,8.9-4.7,14-5.8,15.8-1.9,3-4.7,6-10.5,6-13.1,0-15.3-15.7-15.3-32.4s.2-14.3.4-17.5h-72.1v-11.6ZM1009.2,55.9v10.9h-75.8v-10.9h75.8Z"/>
        <path class="cls-2" d="M1028,38.6h18.1v-7.3h12v7.3h17.5v11.7h-17.5v5.1h17.1v44.7h-17.1v6.2h18.2v11.9h-18.2v16.3h-12v-16.3h-18.9v-11.9h18.9v-6.2h-16.9v-44.7h16.9v-5.1h-18.1v-11.7ZM1039.2,65.3v7.9h7.3v-7.9h-7.3ZM1039.2,81.9v8.1h7.3v-8.1h-7.3ZM1057.8,65.3v7.9h7.4v-7.9h-7.4ZM1057.8,81.9v8.1h7.4v-8.1h-7.4ZM1110.7,105.6v13.7h19.8v12.8h-55.2v-12.8h22v-13.7h-18.5v-12.3h18.5v-9h13.4v9h17.5v12.3h-17.5ZM1128.2,46.6c-1.5,4.1-4.5,11.7-13.7,21.1,7.1,4.8,12.7,6.7,16.9,8.1l-5.8,12.6c-4.1-1.4-11.8-4.4-20.8-12-10.2,7.7-18.6,10.6-23.4,12.2l-5.8-12.2c3.3-1,10.6-3.2,19.8-9-6.9-8-9.6-13.7-10.9-16.7l9-3.6h-15.2v-12.6h50v12.2ZM1095.8,47c1.4,2.7,3.8,6.9,9.1,12.6,5.6-5.5,7.7-9.4,9.3-12.6h-18.4Z"/>
        <path class="cls-2" d="M1165.2,37.7c-2.8,17-4.4,33.9-4.4,51.1s.4,25.2,3.7,39.7l-14.8,1.4c-3.3-15.3-3.6-30.8-3.6-38.8s0-23,3.9-54.7l15.1,1.2ZM1192.8,86.3c-3.8,5.8-5,10.2-5,13.8,0,6.9,6.1,10,18.9,10s20.1-.1,27.8-1.1v14.6c-5.8.5-14,.8-20,.8-14.6,0-40.1,0-40.1-22.9s4.3-16.7,6.6-20.4l11.8,5.3ZM1232.6,44.2v14h-54.8v-14h54.8Z"/>
        <path class="cls-2" d="M1279.3,35.8h13.9v11.6h23.9v13.5h-23.9v11.3c3-.5,8.1-1.5,15.8-1.5,15.8,0,22.5,4.8,25.8,7.6,8.2,7.1,9.5,16.9,9.5,22.2,0,24.4-22.1,30.2-44.4,29.9l-3-12.8c12.8,0,32.7.1,32.7-18s-17.4-16.2-22-16.2c-7.2,0-11.2.9-14.5,1.6v28.8c0,4.1,0,14.2-17.4,14.2s-24.2-13.4-24.2-21.3,1.6-21,27.7-31.1v-14.7h-25.3v-13.5h25.3v-11.6ZM1279.3,88.7c-3.9,2.1-14,7.6-14,17.3s5.6,8.5,9.2,8.5,4.8-2,4.8-4.2v-21.7ZM1325.1,34.5c12.8,10,19,19.4,24.2,29.6l-12.9,7.2c-5-11.2-14.2-22.6-22.1-28.6l10.8-8.2Z"/>
        <path class="cls-2" d="M1362.8,35.4h43.2v43.5h-30v55.8h-13.2V35.4ZM1376.1,46.1v6.9h16.9v-6.9h-16.9ZM1376.1,61.3v7.3h16.9v-7.3h-16.9ZM1434.5,121.2h9c2.5,0,2.8-1.1,2.8-3v-39.3h-31v-43.5h44v88.8c0,10.1-5.7,10.5-9.4,10.5h-18.7l-1.5-10.5h-42.5v-37.7h47.3v34.6ZM1399.7,97.7v14.9h22.3v-14.9h-22.3ZM1428.4,46.1v6.9h18v-6.9h-18ZM1428.4,61.3v7.3h18v-7.3h-18Z"/>
        <path class="cls-2" d="M1493.7,41.8c-.8,4.5-2.6,16.3-2.6,29.8s1.3,40,11.6,40,5.9-2.7,8.1-6.1c1.1-1.8,4.3-6.9,7.2-15.2l12.2,6.7c-2.8,7.9-11.5,31.1-28.8,31.1s-25-42.7-25-55.7,1.2-26.1,1.6-31.7l15.7,1.3ZM1556.8,117.3c0-26.3-1-47.8-19-66.6l11.7-8.2c23,21.7,23.5,51.3,23.4,73.9l-16.1.9Z"/>
        <path class="cls-2" d="M1608.6,65.5c-7.9,4.5-13.4,7-17.5,8.8l-7.2-13.8c18-5.9,34.5-15.8,45.4-29.3h14.9c6.1,7.1,16.6,18.4,45.4,29.3l-7.6,13.8c-3.9-1.8-9.9-4.5-16.6-8.4v7.9h-56.8v-8.2ZM1595,83.2h83.1v51.2h-13.8v-4.1h-55.5v4.1h-13.8v-51.2ZM1608.8,95.5v22.6h55.5v-22.6h-55.5ZM1658,61.4c-12.3-8.3-18.4-15.2-21.7-18.8-5.9,7.3-12.8,13.5-21.1,18.8h42.8Z"/>
        <path class="cls-2" d="M1742.1,114.5c13-.3,40-1.3,40-27.8s-16.6-20.9-20.1-20.9c-13.9,0-23.9,8.8-29.6,14.3v49.9c.1,0-14.4,0-14.4,0l.3-32.1c-3.4,6-5.6,9.4-11.4,15.3l-7.7-14.8c3.9-3.6,10.3-9.3,19.3-24.2v-9.6c.1,0-15.7.1-15.7.1v-13.7h15.9v-15.3h14.3c0-.1-.3,15.3-.3,15.3h3.1v7.2c-.8,1.2-2.7,4.6-3.4,6.5,6.2-5,16.9-12.4,31.7-12.4,26.9,0,33.2,22,33.2,34.5,0,39-39.3,40.6-51.7,41.2l-3.5-13.6Z"/>
        <path class="cls-2" d="M1893,34.8c.7,5.8,1,12.2,1,21.2l16.4-.3.2,13.4-16.6.4c-.5,24.2-1.1,35.7-19.7,35.7s-9.2-.3-13.9-1.2l-.8-13.1c4.9.9,10.9,1.4,13.5,1.4,4.3,0,5-2,5.8-6.1.8-3.9,1-10.2,1-16.3l-35.1.8-.2,25.6c-.1,18.3.5,19.3,27.3,19.3s26.7-.9,30.2-1.3v14.1c-3.6.3-8.9.8-26.9.8s-37.1-2-42.4-13.6c-1.5-3.4-2.2-11.1-2.2-18.7v-25.8l-16.3.3-.4-13.4,16.7-.3v-20.9h14.6l-.2,20.5,34.6-.8c-.1-3.4-.5-17.5-.8-21.3l14.3-.2Z"/>
        <path class="cls-2" d="M1992.8,132.1c-16.3-13.5-25.9-19.5-50.7-34.8-4.8-3.1-12.6-7.9-12.6-14.6s1.8-7.2,8.5-12.9c26.5-22.2,29.4-24.7,42.3-37l14.1,9.3c-1.8,1.5-11.5,9.6-20.1,16.9-3.9,3.3-23.8,18.2-25.6,20-1,1.1-1.3,2-1.3,3,0,2.2,2,3.4,6.6,6,18.2,10.2,39.2,21.9,52.5,33.2l-13.7,10.9Z"/>
        <path class="cls-2" d="M2055.5,36c-.1,1.4-1.2,10.4-1.5,12.6h26.9v13.5h-29c-4.5,24.5-8.8,46.5-17.3,67.9l-14-3.7c8.2-20.7,13.6-42.3,17.2-64.1h-14.8v-13.5h16.6c.8-8.3.9-9.5,1.1-13.1l14.8.5ZM2077.8,96.7c-4.7,5-5.9,8.5-5.9,10.9,0,8.4,13,8.4,19.9,8.4,10.6,0,16.2-.4,23.3-1.1l.5,14c-3.9.2-7.3.5-18.3.5-17.7,0-23.4-1.4-28.1-3.7-6-3-10.9-8.5-10.9-15.9s2.3-12.5,9.3-20l10.2,6.8ZM2113.8,77c-3.1-.1-6.1-.3-10.7-.3-15.9,0-25.1,2.6-31.6,4.8l-4.3-12c16.5-6,30.9-7.1,46.5-6.7v14.2ZM2094.8,55.4c-1.1-4.6-3.5-12.6-6.5-17.8l9-2.8c3,5.1,5.6,12.5,6.9,17.3l-9.4,3.4ZM2109.5,51.3c-2.4-7.6-3.9-11.4-6.9-16.9l9-3c1.6,2.8,5.9,11.3,7.4,16.6l-9.5,3.2Z"/>
        <path class="cls-2" d="M2184.9,34.8c.9,5.5,1.8,10.5,4,17.7,14.9-.9,23.9-2.4,31.5-3.9l2.3,13.8c-6.9,1.5-13.9,2.5-28.7,3.5,2.2,5.5,9.2,18.9,16.1,26.2l-12.5,7.8c-8.6-10.3-16.1-27.7-18.4-33.4h-47.9v-13.6h43c-2-6.2-3.3-11.6-4.3-16.5l14.8-1.5ZM2170.1,88.3c-15.8,4.5-19.6,11.2-19.6,16.4,0,9.9,11.9,11.3,32.2,11.3s18.1-.5,28.5-1.6l-.5,14.1c-6.7.7-14.5,1-25.3,1-22.3,0-30.2-2-37.5-5.9-5.6-3.1-11.4-8.9-11.4-18.3s7.3-21.8,27.9-28l5.8,11.1Z"/>
        <path class="cls-2" d="M2256.5,41.8c-.8,4.5-2.6,16.3-2.6,29.8s1.3,40,11.6,40,5.9-2.7,8.1-6.1c1.1-1.8,4.3-6.9,7.2-15.2l12.2,6.7c-2.8,7.9-11.5,31.1-28.8,31.1s-25-42.7-25-55.7,1.2-26.1,1.6-31.7l15.7,1.3ZM2319.6,117.3c0-26.3-1-47.8-19-66.6l11.7-8.2c23,21.7,23.5,51.3,23.4,73.9l-16.1.9Z"/>
      </g>
    </g>
  </g>
</svg>